<svg width="19" height="19" viewBox="0 0 19 19" fill="none" xmlns="http://www.w3.org/2000/svg">
<path d="M9.29883 1.11316C10.9339 1.06267 12.5271 1.63644 13.7539 2.71863C14.9808 3.80099 15.7496 5.31046 15.9033 6.93933C16.0542 8.53827 15.5989 10.133 14.6338 11.4139L17.9678 14.7469C18.0505 14.8297 18.1163 14.9279 18.1611 15.036C18.206 15.1442 18.2295 15.2607 18.2295 15.3778C18.2295 15.4949 18.206 15.6114 18.1611 15.7196C18.1163 15.8277 18.0505 15.9259 17.9678 16.0087C17.885 16.0914 17.7868 16.1572 17.6787 16.202C17.5705 16.2469 17.4541 16.2694 17.3369 16.2694C17.2198 16.2694 17.1033 16.2469 16.9951 16.202C16.887 16.1572 16.7888 16.0914 16.7061 16.0087L13.373 12.6747C12.0923 13.6424 10.4959 14.0991 8.89551 13.9491C7.26544 13.7962 5.75495 13.0275 4.67188 11.7997C3.5888 10.5718 3.01472 8.97713 3.06641 7.3407C3.11822 5.7041 3.79249 4.14806 4.95117 2.99109C6.1088 1.83516 7.66366 1.16376 9.29883 1.11316ZM9.50879 2.91882C8.2821 2.92382 7.10666 3.41275 6.23926 4.28015C5.37188 5.14755 4.88292 6.32302 4.87793 7.54968C4.873 8.77628 5.35263 9.95557 6.21289 10.83C6.64329 11.2674 7.1562 11.6151 7.72168 11.8534C8.28734 12.0918 8.89496 12.2161 9.50879 12.2186C10.1224 12.2211 10.7304 12.1017 11.2979 11.868C11.8654 11.6343 12.3814 11.2903 12.8154 10.8563C13.2495 10.4223 13.5934 9.90633 13.8271 9.33875C14.0608 8.77131 14.1802 8.16333 14.1777 7.54968C14.1752 6.93585 14.0509 6.32824 13.8125 5.76257C13.5742 5.19707 13.2265 4.68419 12.7891 4.25378C11.9147 3.3935 10.7354 2.91387 9.50879 2.91882Z" fill="black" stroke="black" stroke-width="0.2"/>
</svg>
